<svg width="244.67" height="221.36" version="1.0" xmlns="http://www.w3.org/2000/svg" xmlns:xlink="http://www.w3.org/1999/xlink">
 <defs>
  <clipPath>
   <path d="m489.83 822.47v-85.939l71.008-0.517-0.694 86.456h-70.314z"/>
  </clipPath>
 </defs>
 <g transform="translate(-267.3 -349.84)">
  <g>
   <rect x="267.3" y="349.84" width="244.67" height="221.36" fill="#9f0807" fill-rule="evenodd"/>
   <text x="588.93378" y="333.52939" fill="#000000" font-family="'Bitstream Vera Sans'" style="line-height:0%" xml:space="preserve"><tspan x="588.93378" y="333.52939" font-size="24.822px" style="line-height:1.25"> </tspan></text>
   <path transform="matrix(.62055 0 0 .62055 148.51 171.98)" d="m415.75 312.35c-0.13146 2e-3 -0.27102 4e-3 -0.49609 0.0469s-0.56421-0.0446-1.2617 0.66992c-0.59933 0.61406-0.67907 1.3176-0.67578 1.7051 3e-3 0.38752 0.0706 0.61127 0.12891 0.80274 0.11659 0.38292 0.24308 0.63107 0.38867 0.90429 0.29118 0.54645 0.66795 1.1294 1.1367 1.8125 0.93752 1.3662 2.2324 3.0789 3.6504 4.8594 2.8359 3.561 5.934 7.2189 8.0293 8.9297 2.2004 1.7966 5.4756 3.7068 8.0469 4.6289 2.1115 0.75721 4.5532 1.2751 6.5586 1.4336 1.1985 0.84048 3.1756 2.1909 4.6562 3.2207-1.2381-0.0169-2.5044-0.12573-3.6836-2e-3 -3.0521 0.32038-7.5692 1.4226-11.689 2.6445-2.0601 0.61095-3.9963 1.251-5.5625 1.8535-0.78311 0.30125-1.4716 0.59162-2.0664 0.88477-0.59476 0.29314-1.0611 0.49525-1.6504 1.0859-0.33395 0.33475-0.73588 1.0537-0.69531 1.8066 0.0406 0.75294 0.40463 1.2529 0.6582 1.5215 0.50714 0.53715 0.79999 0.59566 1.0781 0.71094 0.55627 0.23056 1.0761 0.35308 1.7402 0.49218 1.3282 0.27822 3.1183 0.53055 5.1836 0.72266 3.9622 0.36854 9.6128 1.0004 12.428 1.3926 3.1007 0.43201 7.701 0.53976 11.975 0.4375 2.1368-0.0511 4.1744-0.1582 5.8809-0.32031 1.6992-0.16142 2.9252-0.28306 4.1191-0.75 0.91601 0.70454 1.7452 1.5114 2.6426 2.2383-3.198-0.50434-6.6306-0.77241-10.432-0.76563-2.3185 4e-3 -4.2158 0.0637-5.7285 0.18555-1.5127 0.12183-2.5703 0.24053-3.623 0.66406-0.52636 0.21177-1.2628 0.47231-1.7441 1.5781-0.24068 0.55291-0.25801 1.2908-0.0898 1.8184 0.16817 0.52758 0.43555 0.86485 0.67382 1.1152 0.95309 1.0015 1.8099 1.2369 3.1055 1.7129 1.5013 0.55155 6.8451 2.9419 11.379 5.1582 4.7412 2.3177 10.745 4.657 14.158 5.3711 3.0955 0.64762 7.5701 1.1812 10.457 1.2344a2.2786 2.2786 0 0 0 0.041 2e-3h0.21094c0.75962 0.9393 1.5166 1.8821 2.2617 2.8555a2.2786 2.2786 0 0 0 0.0156 0.0195c0.29068 0.37099 0.52981 0.78178 0.81641 1.1562-0.41799-0.19351-0.79321-0.44055-1.2188-0.62305-3.3739-1.447-7.7878-2.8736-11.553-3.8652-1.8825-0.4958-3.5886-0.8809-4.9688-1.0977-0.69009-0.10838-1.2912-0.17792-1.877-0.18359-0.29289-3e-3 -0.57878 5e-3 -0.93945 0.0742-0.36067 0.0693-0.8649 0.13907-1.4727 0.76172-0.52058 0.53343-0.66947 1.2845-0.65234 1.707 0.0171 0.42252 0.11074 0.64562 0.17968 0.8125 0.1379 0.33377 0.23927 0.45584 0.32813 0.57813 0.17772 0.24458 0.32468 0.40091 0.50195 0.58789 0.35454 0.37396 0.80862 0.80718 1.375 1.3242 1.1328 1.0341 2.695 2.378 4.457 3.8164 3.4613 2.8256 8.4688 6.9531 11.1 9.166 2.5658 2.1582 6.1316 4.6196 9.5117 6.6973 3.3801 2.0777 6.2867 3.7272 8.5644 4.3242 0.48625 0.12745 0.84402 0.16503 1.2637 0.25196 0.91001 1.9848 1.7621 3.9972 2.5781 6.0273-3.1146-2.8248-6.3244-5.205-11.406-7.9277-2.465-1.3207-4.7069-2.4343-6.3867-3.1875-0.8399-0.37659-1.5246-0.66075-2.1172-0.85742-0.29628-0.0983-0.53529-0.18339-0.96875-0.23438-0.21674-0.0255-0.47345-0.0927-1.0625 0.0859-0.29453 0.0893-0.71417 0.27486-1.0859 0.69922-0.37178 0.42436-0.57814 1.0665-0.57813 1.5332-3e-5 1.297 0.33556 1.3408 0.55078 1.7031 0.21523 0.36234 0.4659 0.72118 0.76172 1.1152 0.59165 0.78812 1.3573 1.698 2.2051 2.6094 2.9225 3.1417 7.3888 9.6912 9.8535 14.568 1.2043 2.383 3.58 5.1774 6.3965 8.0684 2.8165 2.891 6.0146 5.7298 8.8281 7.6348 1.1858 0.80283 1.9631 1.1541 2.8223 1.5996 0.41509 2.3543 0.67727 4.7318 0.96875 7.1055-1.4336-2.1725-3.3107-4.3079-6.3125-7.2988-3.6246-3.6114-7.6063-7.603-8.752-8.7852a2.2786 2.2786 0 0 0-4e-3 -2e-3l-2.1875-2.25a2.2786 2.2786 0 0 0-3.8203 2.2266l0.65625 2.25c6.3554 22.314 10.372 31.581 17.709 40.496 1.359 1.6512 2.1698 2.6718 3.0156 3.4414 0.062 0.0564 0.14486 0.11185 0.20898 0.16992-0.18118 1.9109-0.36092 3.8151-0.62695 5.7207a2.2786 2.2786 0 0 0-4e-3 0.0195c-0.0896 0.68425-0.28993 1.345-0.39062 2.0273-0.0749-0.22722-0.0924-0.4892-0.17188-0.71289-1.0214-2.8766-4.0147-8.2702-6.9707-13.291-1.478-2.5104-2.9219-4.8519-4.0723-6.5684-0.57517-0.85825-1.0669-1.5505-1.5156-2.0957-0.22438-0.27262-0.41059-0.50007-0.75391-0.78125-0.17165-0.14059-0.35876-0.32076-0.86718-0.49023-0.50843-0.16948-1.8121-0.10282-2.4902 0.63672-0.79767 0.86991-0.57045 1.0591-0.60937 1.2734-0.0389 0.2143-0.0523 0.37525-0.0645 0.54883-0.0243 0.34718-0.0313 0.72883-0.0312 1.1914 1.8e-4 0.92515 0.0354 2.1494 0.0957 3.6094 0.12056 2.9199 0.34426 6.7606 0.61523 10.701s0.5872 7.9766 0.89453 11.283 0.54524 5.681 0.875 7.0801c0.62556 2.6541 1.8032 5.8471 3.1152 8.7734 1.312 2.9264 2.6316 5.4676 4.0781 7.1133 0.11522 0.13108 0.19895 0.20096 0.3086 0.32226-1.2687 3.2493-2.6136 6.4605-4.1211 9.5879 0.0177-3.2222-0.18278-6.4956-0.73242-9.6777-1.1619-6.727-2.6804-12.28-4.0918-15.512-0.35286-0.808-0.68494-1.4702-1.1289-2.0762-0.22198-0.30299-0.46433-0.60151-0.88282-0.9043-0.41848-0.30279-1.1596-0.65826-2.0508-0.50586s-1.5187 0.77859-1.8125 1.2422c-0.29378 0.4636-0.40735 0.85404-0.5 1.248-0.18528 0.78801-0.23912 1.6228-0.24414 2.6992 1e-5 -2e-3 -0.26466 2.0772-0.73828 4.4277s-1.1318 5.2924-1.8516 8.2266c-2.0828 8.491-3.1956 14.345-3.3086 19.402-0.11299 5.0574 0.8386 9.2626 2.6777 14.023l0.28125 0.73828c-1.6363 2.1397-3.3101 4.2446-5.0664 6.2715 0.15809-1.0579 0.36375-2.0158 0.48438-3.1484 0.51006-4.7892 0.64373-10.082 0.25976-14.805a2.2786 2.2786 0 0 0 0-2e-3l-0.625-7.5312a2.2786 2.2786 0 0 0-4.291-0.86914l-3.8438 7.3438a2.2786 2.2786 0 0 0 0 4e-3c-2.0859 3.9997-4.821 8.747-5.6934 10-4.8016 6.8967-6.5265 12.433-7 22.318l-0.29102 6.0898c-1.1308 0.83556-2.2608 1.6688-3.4062 2.4512a2.2786 2.2786 0 0 0-0.0195 0.0137c-0.9747 0.68074-2.0215 1.2161-3.0117 1.8672 2.6718-5.3018 4.7228-11.347 5.7246-17.84a2.2786 2.2786 0 0 0 2e-3 -0.01l0.6875-4.5938a2.2786 2.2786 0 0 0-3.8301-1.9824l-5.3438 5.125v-2e-3c-8.369 8.0129-13.731 13.567-17.229 18.277-3.4971 4.7099-5.1102 8.7067-5.6738 13.012-0.0401 0.30596-0.0336 0.48104-0.0625 0.74609-2.0211 0.70778-4.0575 1.3669-6.1094 1.9688 1.1846-1.3002 2.3782-2.6018 3.4941-4.0566 3.0784-4.0132 5.6702-8.1419 6.5254-11.631v-2e-3l0.5625-2.2793a2.2786 2.2786 0 0 0-3.2207-2.5879l-4.3125 2.125a2.2786 2.2786 0 0 0-2e-3 0c-2.1953 1.0851-6.696 2.9191-9.6543 3.9141-3.2915 1.107-7.2312 2.8568-9.459 4.3672-2.439 1.6536-5.0386 4.4264-7.2188 7.2129-1.09 1.3932-2.0522 2.7777-2.7812 4.0527-0.65913 1.1527-1.1654 2.1152-1.2676 3.4492-4.2487 0.23807-8.4955 0.25563-12.748 0.0488l-0.90625-2.2344a2.2786 2.2786 0 0 0-2e-3 -4e-3c-3.4111-8.364-9.4015-13.206-20.766-17.166-3.2187-1.1216-7.695-2.9971-9.5391-3.9609a2.2786 2.2786 0 0 0-2e-3 -2e-3l-3.7812-1.9688a2.2786 2.2786 0 0 0-3.2422 2.6523l0.59375 2.0625a2.2786 2.2786 0 0 0 2e-3 6e-3c1.1621 3.9912 4.2704 8.655 7.8652 12.996 1.0872 1.3129 2.2328 2.4215 3.3633 3.6035-2.5025-0.66381-4.9631-1.4606-7.4141-2.2969-0.017-0.41451 0.0653-0.75147 0.0137-1.2207-0.40404-3.6726-1.3973-6.8647-3.8086-10.447-2.4111-3.5823-6.1554-7.6439-12.273-13.84v-2e-3l-11.812-11.967a2.2786 2.2786 0 0 0-3.875 1.9277l0.56055 3.8633c6e-5 4e-4 -6e-5 2e-3 0 2e-3l2e-3 0.01c0.34915 2.4854 1.5515 7.3666 2.793 11.459 0.90934 2.9976 2.0567 5.73 3.3691 8.2676-2.3852-1.5031-4.6988-3.1301-6.9883-4.7969l0.0762-0.32031 2e-3 -6e-3c1.9845-8.2873-1.7554-20.798-8.1973-30.447-1.1262-1.6869-3.6422-6.1069-5.3652-9.4883a2.2786 2.2786 0 0 0-2e-3 -4e-3l-3.2188-6.2812a2.2786 2.2786 0 0 0-4.3047 0.98437l-0.28125 11.688c-0.13986 5.8829 0.10774 11.618 0.63086 15.223-1.9086-2.1435-3.6834-4.4083-5.4551-6.6738 0.28313-0.52074 0.43339-1.0711 0.66406-1.6836 0.45497-1.208 0.86006-2.6618 1.2168-4.2656 0.71347-3.2077 1.2248-6.9651 1.2188-10.143-8e-3 -4.1607-1.1908-11.029-3.127-19.002-0.83326-3.4316-1.5992-6.8612-2.1582-9.5977-0.55902-2.7364-0.9007-5.0881-0.9043-5.2129-0.0193-0.67035-0.0246-1.1641-0.0937-1.7012-0.0346-0.26853 1e-3 -0.51379-0.34765-1.1445-0.17451-0.31537-0.54693-0.8474-1.3125-1.1113-0.76557-0.26392-1.5869-0.0251-1.9766 0.20508-0.77933 0.46037-0.82501 0.75171-0.98242 1.002-0.1574 0.25025-0.27891 0.48581-0.41601 0.76172-0.2742 0.55184-0.59041 1.254-1.0078 2.1836-2.4046 5.3551-5.3887 19.587-5.3887 25.559 0 0.27731 0.0845 0.77125 0.10157 1.0957-0.94083-1.9071-1.9152-3.7963-2.7637-5.752a2.2786 2.2786 0 0 0-8e-3 -0.0195c-0.67428-1.5145-1.2189-3.084-1.832-4.625 0.18538-0.16516 0.45859-0.32563 0.64258-0.4961 2.9107-2.6968 5.3318-7.9246 7.1289-13.75 0.39963-1.2954 0.63162-3.1051 0.94532-5.7363 0.3137-2.6312 0.63448-5.9083 0.92773-9.4102 0.58651-7.0036 1.0622-14.879 1.1328-20.215 4e-3 -0.32987 0.0349-0.76381-0.34765-1.4297-0.38254-0.66588-1.4955-1.2326-2.1582-1.2207-1.1326 0.0203-1.4388 0.43828-1.7539 0.6914-0.31509 0.25313-0.55687 0.50583-0.8125 0.79297-0.51127 0.57428-1.0497 1.2838-1.6504 2.1367-1.2014 1.7058-2.6264 3.9639-4.0625 6.4043-2.8723 4.8807-5.7345 10.261-6.7676 13.688-0.26056 0.86428-0.38257 1.7474-0.58789 2.6211-0.54853-3.1598-1.0132-6.3374-1.3398-9.5332 0.1906-0.12715 0.2662-0.2739 0.37891-0.36328 0.23552-0.18677 0.41003-0.35739 0.59961-0.55274 0.37916-0.39069 0.79122-0.86758 1.2637-1.4434 0.9449-1.1515 2.111-2.6815 3.3301-4.3496 2.4382-3.3362 5.0393-7.1409 6.375-9.5566 1.8944-3.4261 4.4404-11.037 8.7188-25.258 0.39026-1.2972 0.74578-2.5281 1.0078-3.4824 0.13102-0.47718 0.23827-0.88227 0.31836-1.209 0.0401-0.16335 0.0729-0.30514 0.10156-0.44531 0.0286-0.13975 0.0759-0.1372 0.0762-0.64258 5.4e-4 -0.85734-0.83995-1.8672-1.3828-2.1016-0.54286-0.23434-0.81847-0.19503-1.0234-0.18555-0.40993 0.019-0.56942 0.0815-0.80664 0.17969-0.68095 0.28205-0.63238 0.36093-0.82032 0.50781-0.18793 0.14689-0.3889 0.31604-0.625 0.51953-0.47219 0.40699-1.0749 0.94859-1.791 1.6094-1.4321 1.3216-3.3114 3.1111-5.3633 5.123-4.9897 4.8924-8.0337 8.7617-10.279 13.025 0.31591-3.1032 0.74951-6.1855 1.2695-9.2578 0.61844-0.18565 1.1082-0.44982 1.6367-0.78125 0.74322-0.46604 1.6084-1.08 2.7305-1.8808 5.9565-4.2513 11.805-10.928 17.709-19.984 2.8675-4.3983 6.5602-9.6537 7.8848-11.268 0.78728-0.9592 1.4519-1.8221 1.9316-2.5117 0.23985-0.3448 0.42728-0.62075 0.61133-0.98242 0.092-0.18083 0.20991-0.31823 0.29687-0.875 0.0435-0.27838 0.14293-0.75587-0.25195-1.4863s-1.4739-1.2129-2.0371-1.2129c-1.2012 1e-5 -1.4495 0.28651-2.125 0.57227s-1.4644 0.66389-2.3613 1.1211c-1.7939 0.91441-4.0027 2.1389-6.2598 3.4531-4.5142 2.6284-8.9938 5.39-11.061 7.2539-0.41928 0.37812-0.70486 0.81392-1.1055 1.2012 0.87066-2.2006 1.7577-4.393 2.7422-6.5391 1.5196-0.18451 2.9997-0.72278 4.8144-1.5644 2.1514-0.99778 4.6149-2.3641 7.1777-3.9473 5.1256-3.1663 10.612-7.1765 14.473-10.877 1.586-1.5202 5.091-4.4982 7.5644-6.4023 1.3223-1.018 2.2878-1.7889 3.0156-2.543 0.36394-0.37705 0.70679-0.68343 0.99805-1.4668 0.14563-0.39168 0.27702-1.0087 0.0566-1.707-0.22039-0.69832-0.79832-1.2434-1.2461-1.4805-0.89555-0.47406-1.394-0.37693-1.9297-0.35547-0.53564 0.0215-1.0896 0.0952-1.7441 0.20703-1.3091 0.22374-3.0038 0.60796-5.2012 1.1387-5.0567 1.2213-9.8251 3.0904-14.109 5.4062 1.2546-1.6944 2.5192-3.38 3.8555-5.0059h1.1016a2.2786 2.2786 0 0 0 8e-3 0c7.7092-0.0256 16.18-2.2723 24.146-6.3106 3.79-1.9211 8.8895-4.2504 11.004-5.0606 1.499-0.57437 2.5336-0.99603 3.4707-1.7559 0.46853-0.37991 1.1596-0.94222 1.2148-2.207 0.0276-0.6324-0.23053-1.3064-0.55273-1.7226-0.32221-0.41627-0.65902-0.64041-0.95704-0.80469-1.1921-0.65714-2.1915-0.70543-3.7285-0.83985-1.537-0.13441-3.498-0.19676-5.9453-0.20117-4.4002-8e-3 -8.196 0.30231-11.658 0.91407 1.1162-0.9098 2.2347-1.8161 3.3789-2.6895 0.20692 0.0783 0.40086 0.15974 0.63086 0.23438 0.80641 0.2617 1.7664 0.51281 2.7637 0.71093 5.6756 1.1276 12.047 0.94848 22.439-0.47656 5.2531-0.72027 11.329-1.3193 12.635-1.3223 1.0382-2e-3 1.973-0.0863 2.8008-0.26758 0.4139-0.0907 0.79325-0.18712 1.2578-0.42578 0.23228-0.11933 0.49798-0.26901 0.80664-0.59571 0.30867-0.32669 0.68946-0.94703 0.68946-1.709-2e-5 -0.85622-0.34127-1.2601-0.53516-1.5039-0.19389-0.24379-0.34371-0.36699-0.47852-0.47461-0.2696-0.21522-0.49384-0.34673-0.74804-0.49023-0.50841-0.28699-1.1145-0.57496-1.8496-0.89648-1.4702-0.64305-3.4254-1.3956-5.5859-2.1348-6.3822-2.1833-12.948-3.0068-18.934-2.6699 1.321-1.0156 3.0987-2.3536 4.1816-3.2012 0.43266 0.0307 0.83581-6e-3 1.2949-6e-3 7.1316 1e-5 13.08-3.0952 19.85-10.031 3.4927-3.5783 6.2465-6.8972 7.8535-9.3613 0.8035-1.2321 1.4173-1.9934 1.5566-3.5195 0.0348-0.38152 0.0362-0.88072-0.24024-1.4746-0.27646-0.59389-0.93499-1.1653-1.5352-1.3633-1.2003-0.39591-1.8281-0.0387-2.4277 0.21289-0.16973 0.0712-1.3377 0.46905-2.7148 0.88086-1.3771 0.41181-3.0741 0.89094-4.7363 1.3301-7.0064 1.851-11.861 3.6955-15.373 6.4707-3.2959 2.6042-5.1452 6.0868-6.1738 10.352-1.734 1.0896-3.2789 2.1478-5.1113 3.334 1.4207-2.9394 2.5848-6.2083 3.6055-10.273l1.5625-6.2188a2.2786 2.2786 0 0 0-3.3066-2.5508l-1.8594 1.0234c-1.3798 0.74529-4.3876 2.7239-7.2774 4.7246-11.54 7.9902-18.127 18.385-15.854 27.666 0.16969 0.6927 0.37125 1.2933 0.5918 1.8359-2.1235 1.8147-4.1957 3.6905-6.209 5.6348 1.5183-5.4445 1.9686-11.537 1.2832-18.094l2e-3 6e-3 -0.59375-5.8438a2.2786 2.2786 0 0 0-4.043-1.1973l-5.625 7c-3.1917 3.9649-6.7244 9.0652-8.1797 12.057-2.8086 5.7732-3.557 13.608-2.1172 20.406 0.25068 1.1836 0.57683 2.248 0.97266 3.1426 0.19792 0.44727 0.40144 0.84925 0.7207 1.2715 0.17663 0.2336 0.44386 0.54603 0.84766 0.80664-1.6986 2.3878-3.4116 4.7553-4.9648 7.2559 8.8e-4 -0.0972 0.0252-0.19188 0.0254-0.28906 8e-3 -5.595-0.6848-9.4476-3.0488-16.795a2.2786 2.2786 0 0 0 0-2e-3l-2.9688-9.2188a2.2786 2.2786 0 0 0-4.332-0.0156l-2.5 7.5625c-3.3766 10.22-5.1872 17.055-5.3848 22.855-0.1976 5.8006 1.3723 10.464 4.3242 15.59a2.2786 2.2786 0 0 0 8e-3 0.0156l1.8125 3.0938a2.2786 2.2786 0 0 0 0.58594 0.36719c-1.1759 2.9973-2.2648 6.032-3.2441 9.1289-0.62291-1.9948-1.1516-3.9683-1.9375-5.9004-1.2805-3.1481-2.3976-5.6952-3.8535-7.3477-0.0887-0.10071-0.80156-1.0688-1.5449-2.207s-1.6153-2.5435-2.418-3.9102c-0.72894-1.2412-1.2855-2.1825-1.7402-2.8984-0.45477-0.71594-0.56899-1.1335-1.4688-1.7988-0.22494-0.16633-0.54203-0.38314-1.1016-0.47852-0.55953-0.0954-1.3792 0.0869-1.8652 0.45703-0.97218 0.74031-0.9184 1.327-0.98633 1.6856-0.13585 0.71703-0.10596 1.2136-0.11132 1.9199-0.01 1.3176-0.31024 7.1969-0.6836 12.643-0.56189 8.1956-0.15606 14.872 1.3906 20.236 1.5467 5.3646 4.3382 9.4619 8.3633 11.977 0.8803 0.54996 1.5633 0.95287 2.2891 1.2969-0.47771 3.8179-0.78657 7.6891-0.9668 11.6-0.9033-1.5159-1.7834-3.0327-2.7832-4.543-1.4932-2.2556-3.0314-4.402-4.4531-6.1816-1.4218-1.7796-2.6318-3.1612-3.9356-4.0859-1.0372-0.73569-3.4676-2.6589-5.1543-4.0957-1.2493-1.0642-1.7338-1.6482-2.9902-2.1484-0.31411-0.12507-0.76165-0.34735-1.623-0.13086s-1.6624 1.2802-1.7812 1.8926c-0.23766 1.2248 0.0836 1.4618 0.24805 1.9082-0.0195-0.053 0.38415 1.5018 0.72851 3.2676 0.34437 1.7658 0.73873 3.99 1.0977 6.2148 2.6247 16.269 7.4279 26.204 16.102 32.057 1.3782 0.92989 2.76 1.771 3.9316 2.4062 0.58583 0.31761 1.1155 0.58424 1.6035 0.79297 0.0866 0.037 0.23204 0.041 0.30859 0.0781 0.49635 3.4832 1.0815 6.9334 1.8203 10.324-1.1508-1.0869-2.3232-2.0807-3.5312-2.832-1.5825-0.98415-5.3222-3.5042-8.1016-5.4824-2.8797-2.0497-7.0119-4.7852-9.4121-6.1992l-2e-3 -2e-3 -4.123-2.4356a2.2786 2.2786 0 0 0-3.207 2.957l5.248 10.809c2.8e-4 5.8e-4 -2.8e-4 1e-3 0 2e-3l2e-3 2e-3c2.9037 6.0056 6.5412 12.909 8.418 15.805 4.0569 6.26 10.632 11.569 17.477 14.059 2.6666 0.97018 4.2822 1.6043 5.875 1.7832 0.23474 0.0264 0.52104-6e-3 0.79102-0.0137 1.5555 3.4649 3.1651 6.8979 4.9746 10.203-5.6251-3.3378-12.528-6.3268-17.443-7.3164-2.5451-0.51244-6.2813-1.5904-7.8379-2.1992-1.1783-0.46087-2.0821-0.80423-2.8418-1.0352-0.37984-0.11546-0.71241-0.20897-1.1406-0.25977-0.42822-0.0508-1.1296-0.27508-2.1289 0.58399-0.49966 0.42953-0.8108 1.1814-0.8418 1.707s0.0817 0.85894 0.17774 1.1133c0.19205 0.50867 0.39433 0.77485 0.61523 1.0781 0.4418 0.60655 1.0072 1.2451 1.7637 2.084 1.3013 1.443 4.2609 5.1861 6.3535 8.041 4.3036 5.8714 13.123 13.743 19.053 16.885 2.1013 1.1132 5.7592 2.2771 8.9062 2.9902 1.567 0.35508 3.1727 0.62269 4.5586 0.77929 1.3859 0.15661 2.3012 0.31221 3.5605 0.0352 0.71203-0.15666 2.2394-0.31754 2.8398-0.32227 0.33956-3e-3 0.6998-0.0179 1.1758-0.12304 2.5884 3.0099 5.2859 5.9051 8.1113 8.6719-0.20086-0.0425-0.34162-0.12378-0.57617-0.17383-1.0317-0.22011-2.3122-0.44986-3.7871-0.68554-2.9498-0.47136-6.6674-0.96814-10.49-1.4199-7.6456-0.90356-15.466-1.6418-18.893-1.543-0.38802 0.0112-0.72895 0.0397-1.0703 0.0996s-0.60404-0.01-1.3379 0.52929c-1e-3 8.4e-4 -0.68689 0.81324-0.6875 0.81446-3.1e-4 6e-4 -0.13949 0.32583-0.17773 0.48046-0.0382 0.15464-0.0577 0.29867-0.0645 0.42969-0.0272 0.52411 0.0931 0.80951 0.17383 1.0039 0.16149 0.3888 0.27129 0.48778 0.35156 0.58789 0.16056 0.20022 0.24489 0.27432 0.33985 0.36328 0.1899 0.17792 0.38586 0.34092 0.63672 0.54492 0.50171 0.408 1.1971 0.94486 2.0644 1.5977 1.7347 1.3056 4.1435 3.0609 6.834 4.9668 9.7093 6.8779 12.845 8.4583 23.002 11.688 6.7253 2.1381 15.912 1.9174 21.961-0.67187a2.2786 2.2786 0 0 0 4e-3 0l3.125-1.3438a2.2786 2.2786 0 0 0 0.10547-0.13477c3.853 2.4803 7.8259 4.7582 11.924 6.8301-0.70836-0.0138-1.3898-0.0736-2.1094-0.0664-4.7918 0.0481-9.8317 0.54484-14.871 1.5762-4.6528 0.95219-11.383 2.2598-14.869 2.8633l-6.4297 1.0918a2.2786 2.2786 0 0 0-0.24805 4.4355l3.8125 1.0938a2.2786 2.2786 0 0 0 2e-3 0c2.034 0.58221 7.7021 2.3034 12.514 3.7988 15.75 4.895 32.644 3.9238 41.164-3.6973a2.2786 2.2786 0 0 0 4e-3 -4e-3l2.7461-2.4707c3.1383 0.92945 6.3018 1.7804 9.5293 2.4726-0.027 0.0104-0.0649 0.015-0.0918 0.0254-2.6784 1.0396-10.033 4.6126-17.041 8.1094-3.5039 1.7484-6.8632 3.4559-9.3633 4.7676-1.25 0.65583-2.2802 1.2096-3.0312 1.6348-0.3755 0.21257-0.6768 0.38822-0.9375 0.55664-0.13034 0.0842-0.24567 0.16022-0.4082 0.29102-0.0813 0.0654-0.17218 0.13592-0.32617 0.30859-0.15399 0.17268-0.59482 0.34029-0.59766 1.543-2e-3 0.77905 0.44372 1.4273 0.75391 1.7109s0.52825 0.37089 0.69141 0.43945c0.32632 0.13711 0.48386 0.15519 0.63671 0.18164 0.30571 0.0529 0.54283 0.0662 0.82813 0.0801 0.5706 0.0278 1.2811 0.031 2.1465 0.0176 1.7307-0.0268 4.0438-0.12067 6.5293-0.25586 4.9711-0.27038 10.534-0.69193 13.469-1.1328 8.0674-1.2121 17.992-4.4493 22.838-7.8223 2.0287-1.4123 4.7422-3.9677 6.5723-6.1582a2.2786 2.2786 0 0 0 4e-3 -4e-3l1.1484-1.3828c1.0982 0.0245 2.197 0.0488 3.2871 0.0488 1.3127-3e-5 2.6159-0.0363 3.916-0.0762l3.8828 3.7227c5.0264 4.8172 7.3723 6.2254 13.893 8.2793 10.753 3.3872 12.168 3.653 23.703 4.3496 2.8885 0.17443 5.632 0.35082 7.7246 0.49218 2.0926 0.14137 3.8074 0.28767 3.7129 0.2754 0.56659 0.0736 1.0908 0.0693 1.707-0.11133 0.30814-0.0903 0.65325-0.21593 1.0586-0.55664 0.40534-0.34072 0.90039-1.0637 0.90039-1.9043 2e-5 -1.2985-0.50093-1.4872-0.70508-1.7051-0.20416-0.21788-0.36219-0.34309-0.5293-0.4707-0.33421-0.25523-0.6932-0.48491-1.1172-0.74219-0.84796-0.51455-1.9343-1.1073-3.1094-1.709-2.3501-1.2033-4.8903-2.4008-6.666-2.9316-0.59912-0.17912-3.137-1.4426-4.668-2.502-4.1087-2.8431-10.071-5.3885-16.152-7.377 3.5453-0.77336 7.0243-1.7259 10.461-2.7852 0.10929 0.18782 0.14323 0.50217 0.25976 0.66016 0.68762 0.93229 1.5715 1.6423 2.6836 2.4258 2.2242 1.567 5.3353 3.2052 8.6641 4.4316 3.7247 1.3724 7.7477 1.8982 13.777 1.9219 7.2957 0.0286 10.505-0.53838 21.545-3.8809 5.6158-1.7002 8.5982-2.6138 10.318-3.4082 0.43004-0.1986 0.78733-0.36025 1.2422-0.75586 0.22743-0.1978 0.51196-0.46519 0.73633-0.99804 0.22437-0.53286 0.24013-1.4079-0.0371-1.998-0.55447-1.1803-1.2119-1.2506-1.6074-1.4023s-0.73362-0.22908-1.1055-0.31055c-13.679-2.997-27.679-5.2422-33.707-5.2422-0.5975 0-1.3756 0.11602-2.041 0.15625 4.5119-2.2989 8.8684-4.8671 13.08-7.6602 0.26671 0.61583 0.6299 1.165 1.0469 1.5195 0.88073 0.74884 1.6619 1.007 2.6953 1.3848 1.0334 0.37772 2.2145 0.71937 3.3945 0.95703 8.1542 1.6424 15.512 0.59182 25.564-3.5332 2.7302-1.1204 8.0034-4.4093 13.207-7.8027 2.6018-1.6967 5.1018-3.3881 7.043-4.7832 0.97058-0.69754 1.7981-1.3187 2.4531-1.8496 0.65506-0.53086 1.0332-0.66064 1.6309-1.6484 0.31739-0.52463 0.47625-1.9293-0.10352-2.7207-0.57977-0.79142-1.118-0.88499-1.4824-0.98828-0.72883-0.20657-1.2719-0.20633-2.084-0.21679-2.7158-0.035-7.8468 0.34402-17.412 1.1641-6.5454 0.56113-12.019 1.6487-16.908 3.291 3.342-3.2101 6.5122-6.6058 9.5293-10.15 0.26796 0.14201 0.51627 0.25613 0.76953 0.34375 0.6237 0.21577 1.3276 0.38072 2.1055 0.50391 2.9223 0.46277 6.6532-0.0715 10.441-0.98828 3.7882-0.91677 7.4485-2.1993 9.9512-3.9141 10.833-7.423 14.098-10.553 19.305-18.471 0.76203-1.1589 1.732-2.4252 2.6348-3.4648 0.90273-1.0397 1.8384-1.8925 2.0742-2.0508 1.0951-0.73517 1.7747-1.075 2.4707-2.2148 0.17401-0.28497 0.38835-0.67324 0.41016-1.3262 0.0218-0.65293-0.36759-1.541-0.87695-1.9688-1.0187-0.85555-1.6297-0.65111-2.1328-0.62695-1.2133 0.0583-2.4194 0.42002-4.2109 1.0234-1.953 0.65786-5.8615 1.712-8.3691 2.2422-5.6009 1.1841-13.059 4.7684-19.18 8.8457 2.1418-3.7928 4.1492-7.6742 5.9492-11.684 0.36454 0.0706 0.73682 0.13793 1.0488 0.12305 1.6732-0.0798 3.307-0.69934 6.0762-1.7363 6.6856-2.5036 12.883-7.0677 16.768-12.457 1.8681-2.5916 5.3186-9.1546 8.4726-15.441 1.577-3.1434 3.0284-6.1506 4.0449-8.4121 0.50825-1.1308 0.9067-2.0637 1.1758-2.8008 0.13454-0.36853 0.23743-0.66355 0.31835-1.0644 0.0405-0.20045 0.11172-0.39361 0.0469-0.91992-0.0324-0.26316-0.0894-0.6664-0.47852-1.168-0.38915-0.50157-1.2481-0.90188-1.8476-0.89844-0.59441 3e-3 -0.69623 0.10369-0.83789 0.1543-0.14166 0.0506-0.23908 0.0938-0.33594 0.13867-0.19371 0.0898-0.37609 0.18526-0.58789 0.30078-0.42361 0.23106-0.94858 0.53902-1.5801 0.91797-1.263 0.75791-2.9352 1.799-4.8027 2.9883-3.7352 2.3785-8.2405 5.3379-11.695 7.7148-2.6267 1.8072-4.7857 3.7118-6.7559 5.7051 0.88566-3.8438 1.4793-7.8004 2.0508-11.764 0.18247-0.02 0.40306 0.0152 0.56054-0.0234 1.7999-0.44159 3.3474-1.4895 5.875-3.0352 8.7526-5.3522 14-15.775 16.436-31.15 0.33264-2.1004 0.73268-4.2748 1.1035-6.0625 0.37083-1.7877 0.77364-3.3154 0.87695-3.5938 0.29574-0.79691 0.48868-1.5186 0.54101-2.291 0.0262-0.3862 0.0539-0.77932-0.1582-1.3984-0.10605-0.30956-0.28935-0.70834-0.70508-1.0859s-1.097-0.64063-1.6582-0.64063c-1.1112 1e-5 -1.2628 0.31029-1.5606 0.49219s-0.55789 0.37417-0.8457 0.60156c-0.57562 0.45479-1.2379 1.0421-1.998 1.75-1.5202 1.4158-3.4108 3.3067-5.3594 5.3418-3.8972 4.0703-7.9266 8.5488-9.7168 11.189-0.84521 1.2468-1.3827 2.539-2.0684 3.8027-0.14768-4.1914-0.30846-8.3781-0.80078-12.469 0.78123-0.16535 1.4301-0.46055 2.0644-0.84375 0.86399-0.52192 1.735-1.1879 2.5957-1.9434 1.7215-1.5109 3.3728-3.304 4.3848-5.1895 4.085-7.611 5.0038-16.759 3.668-32.305l-0.75-8.75a2.2786 2.2786 0 0 0-4.1973-1.0176l-3.8125 6.0625c-2.1715 3.4326-5.1799 8.7702-6.8086 12.123-1.3696 2.8194-2.1207 4.7329-2.541 7.0566-1.0983-3.6101-2.2942-7.1591-3.6582-10.637 1.4054-0.4217 1.835-1.1966 2.5039-2.043 1.522-1.9257 2.7433-4.8165 3.791-7.9141 1.0477-3.0976 1.8373-6.1838 1.8262-8.6641-0.0125-2.7701-0.99211-7.1083-2.4121-12.393-1.42-5.2842-3.3117-11.282-5.2676-16.438-0.0926-0.24421-0.24017-0.5732-0.59375-0.92383s-0.96605-0.64577-1.4844-0.69336c-0.99002-0.091-1.5388 0.33466-1.8535 0.58984-0.31473 0.25519-0.48887 0.47555-0.65625 0.69922-0.33477 0.44734-0.60135 0.92128-0.89844 1.502-0.59417 1.1614-1.2584 2.7239-1.9941 4.6738-2.4478 6.4876-2.8792 8.9824-2.9297 17.854-0.01 1.7031 0.11882 2.2743 0.13672 3.5215-2.0084-3.4135-4.1693-6.6974-6.4414-9.9102 0.91762-0.18508 1.5575-0.71164 1.8652-1.1367 0.36965-0.51061 0.5727-0.99111 0.76562-1.5195 0.38586-1.0568 0.66422-2.307 0.89063-3.7246 0.45281-2.8353 0.66181-6.2641 0.39453-9.2344-0.38282-4.2543-1.3289-7.9272-3.4356-11.867-2.1066-3.94-5.3038-8.1489-10.223-13.936l-3.375-3.9688a2.2786 2.2786 0 0 0-4.0137 1.5371l0.3125 11.688c0.13999 5.2433 0.27867 8.3679 0.6914 10.926 0.1533 0.95009 0.39476 1.7691 0.63672 2.6016-2.2281-2.2106-4.6565-4.1876-7.0254-6.2363 0.0414-0.0638 0.11519-0.1335 0.15039-0.19336 0.28969-0.4926 0.4433-0.95187 0.57227-1.4336 0.25793-0.96343 0.38268-2.0283 0.4375-3.1934 0.10964-2.33-0.068-4.9715-0.7168-7.1992-0.90968-3.1232-3.3201-6.4926-6.4062-9.957s-6.8605-6.8766-10.615-9.3672c-1.773-1.176-3.4099-2.2121-4.6582-2.9551-0.62414-0.3715-1.1445-0.66721-1.584-0.89062-0.21972-0.11171-0.40687-0.20496-0.66602-0.30078-0.12957-0.0479-0.26389-0.10203-0.55273-0.14844-0.28884-0.0464-0.981-0.38303-2.0137 0.62305-0.98843 0.96298-0.72431 1.4165-0.74024 1.7226-0.0159 0.30616 3e-3 0.5299 0.0274 0.77149 0.049 0.48317 0.14074 1.004 0.26367 1.6152 0.24586 1.2225 0.62343 2.7686 1.0703 4.4238 0.89376 3.3105 2.0165 6.9559 2.9707 9.1602 0.30986 0.7158 0.79025 1.5058 1.25 2.2852-1.8345-1.003-3.3577-1.808-5.5801-3.0586-0.24621-7.7236-7.4567-14.666-16.6-17.318-3.0455-0.8836-7.4853-2.222-9.7891-2.9531-1.0671-0.33864-2.0744-0.62556-2.916-0.83398s-1.2662-0.37719-2.209-0.36523z" fill="#880606" style="mix-blend-mode:exclusion"/>
  </g>
  <g transform="matrix(.62055 0 0 .62055 -127.28 270.79)">
   <g transform="matrix(10.963 0 0 -10.963 -5181.1 9279.1)"></g>
  </g>
  <path d="m406.52 367.22c-0.0469 6e-4 -0.0847 0.0263-0.097 0.0388-0.38856 0.3981 5.7387 8.0676 7.7568 9.7155 1.1832 0.96611 3.2308 2.1423 4.5572 2.6179 1.3098 0.46973 3.1673 0.86812 4.1499 0.89204 1.9821 1.3907 4.6282 3.2179 7.8732 5.4298-2.4481-0.65869-5.2876-0.94915-7.6793-0.69812-3.3741 0.35418-11.24 2.6858-12.159 3.6069-0.23903 0.23961 1.5888 0.62224 4.0724 0.85325 2.4836 0.23102 6 0.64187 7.7956 0.89204 3.5138 0.48957 11.36 0.28274 12.915-0.32966 0.31353-0.12342 0.54986-0.24883 0.69812-0.38785 2.5704 1.9362 5.0377 4.0274 7.369 6.2637-3.3559-1.5338-7.3395-2.2197-12.392-2.2107-5.6621 0.0101-7.0428 0.55188-4.1111 1.6289 1.1192 0.41119 4.3708 1.8874 7.2139 3.2773 2.8431 1.3898 6.64 2.824 8.4356 3.1997 1.7956 0.37568 4.595 0.70686 6.2249 0.7369l0.81447 0.0194c0.63073 0.76184 1.24 1.5403 1.8423 2.327 1.5943 2.0348 3.0925 4.1534 4.4796 6.3412-1.8393-1.5047-4.0221-2.8394-6.3994-3.859-3.9791-1.7065-10.831-3.4931-11.344-2.967-0.10181 0.10432 1.5703 1.6167 3.7233 3.3742 2.153 1.7576 5.2576 4.3361 6.9036 5.7207 3.0021 2.5252 8.7289 6.0469 10.666 6.5545 0.59456 0.15584 1.0716 0.25315 1.435 0.29089 1.6573 3.5397 3.0836 7.2045 4.2469 10.957-0.63461-0.90944-1.4198-1.8359-2.4434-2.9476-2.7309-2.9658-4.665-4.4089-8.9592-6.7097-3.0125-1.614-5.488-2.7218-5.488-2.4628 0 0.25903 0.81351 1.321 1.8035 2.3852 1.979 2.1274 4.7367 6.2107 6.3412 9.3858 1.1736 2.3222 5.7723 7.0273 8.998 9.2113 1.0841 0.73395 1.8004 1.1597 2.2495 1.2993 0.95836 5.22 1.4496 10.546 1.4544 15.863-0.31185-2.0534-0.84222-4.2265-1.5126-6.0504-1.2544-3.4126-2.0782-4.5924-5.5656-8.0671-2.2511-2.2429-4.7064-4.7215-5.4492-5.488l-1.3381-1.3962 0.38785 1.3962c3.9314 13.805 6.3103 19.265 10.724 24.628 1.6834 2.0454 2.1367 2.5496 2.4628 2.1138-0.13132 1.6013-0.30144 3.1986-0.52359 4.7898-0.4225 3.2279-1.0613 6.4231-1.8616 9.5603 0.0761-2.8615-0.31989-5.9347-1.2217-8.4744-1.0124-2.8511-7.5824-13.98-7.9896-13.536-0.366 0.39917 0.87896 18.526 1.435 20.885 0.7076 3.0022 2.836 7.7358 4.1499 9.2307 0.31537 0.35877 0.62745 0.6644 0.81447 0.83386-1.7527 4.6286-3.9085 9.0914-6.4188 13.322 0.88237-3.7925 1.0757-8.4989 0.32967-12.818-1.4144-8.1887-3.7976-13.698-3.8202-8.8234-4e-3 0.82508-0.74581 4.5042-1.6483 8.1835-2.5682 10.47-2.6692 14.211-0.46541 19.916l0.48481 1.2023c-2.3085 3.0779-4.8137 5.993-7.5048 8.7071 0.0382-0.0746 0.0649-0.16283 0.097-0.2327 1.3725-2.9926 2.1453-10.208 1.6871-15.843l-0.36845-4.6929-2.4046 4.5765c-1.3134 2.5183-2.9304 5.3695-3.6069 6.3412-2.8799 4.1365-3.8038 7.1164-4.0917 13.128l-0.2327 4.4602c-0.88701 0.6635-1.7822 1.3154-2.6955 1.9392-2.2923 1.601-4.6569 3.0604-7.0975 4.3826 3.1705-3.825 5.6188-9.4786 6.5739-15.669l0.44602-2.87-3.3354 3.1803c-10.35 9.9093-13.125 13.685-13.768 18.597-0.0778 0.59388-0.13462 1.0183-0.13575 1.3381-3.619 1.3134-7.3089 2.3646-11.073 3.1221 0.45726-0.19852 0.8834-0.43289 1.3574-0.71751 3.302-1.9826 8.6066-8.8958 9.444-12.314l0.34906-1.4156-2.6761 1.3187c-1.4745 0.72878-4.2494 1.8374-6.1667 2.4822-1.9173 0.64483-4.3884 1.8011-5.5074 2.5598-2.5355 1.719-6.4382 6.6641-6.4382 8.1835 1e-5 0.87785 0.21019 1.0806 2.5016 0.989-5.5698 0.59271-11.186 0.58306-16.755-0.0388 0.0879 2e-3 0.1849-1e-3 0.27149 0l3.6651 0.0582-0.83386-2.075c-1.9836-4.8638-5.1421-7.4534-12.023-9.8512-2.069-0.72095-4.816-1.8454-6.1085-2.521l-2.3658-1.2411 0.36845 1.2993c1.2045 4.1367 7.4099 11.52 11.054 13.419-1.9041-0.36771-3.7886-0.80295-5.6625-1.3187-1.947-0.51252-3.8828-1.1089-5.7789-1.7841 0.0805-0.38932 0.0803-0.93806 0-1.6677-0.47065-4.2781-2.0173-6.5752-9.5797-14.234l-7.3302-7.4078 0.34906 2.4046c0.18523 1.3225 0.95468 4.4252 1.7065 6.9036 1.2345 4.0694 3.0559 7.3829 5.4492 9.89-3.7185-1.9373-7.2803-4.1854-10.666-6.7097l0.27149-1.1635c1.0432-4.3498-1.0813-12.063-4.8868-17.763-0.78347-1.1735-2.3194-3.9041-3.413-6.0504l-1.978-3.8978-0.17453 7.2527c-0.0965 4.0596 0.0996 8.5242 0.44602 10.161 0.3453 1.6317 1.2296 3.5109 2.424 5.3134-3.4701-3.2789-6.6578-6.8717-9.5409-10.724 0.29784 0.21139 0.51619 0.31818 0.62055 0.2521 0.93625-0.59281 2.1401-6.093 2.1331-9.7155-4e-3 -2.294-0.71315-6.5712-1.9004-11.461-1.0423-4.2925-1.9127-8.5629-1.9392-9.4828-0.0475-1.6497-0.0722-1.6415-1.1054 0.65934-1.2277 2.7341-3.2191 12.181-3.2191 15.281 0 1.184 0.41634 4.0523 0.91143 6.3606 0.21462 1.0007 0.42258 1.8241 0.65933 2.5598-2.2532-3.5743-4.2413-7.3267-5.934-11.228-7.1085-15.966-8.8248-34.338-5.4298-51.564 0 1.7887 0.13724 1.7842 2.9088-0.19392 3.4796-2.4835 7.0236-6.5156 10.627-12.043 1.799-2.7595 4.0401-5.9478 4.9838-7.0975 0.9437-1.1498 1.5956-2.0944 1.435-2.0944-1.0707 0-10.601 5.5774-12.566 7.3496-2.6445 2.3849-4.6657 5.0721-5.9146 7.815 1.2798-4.6567 2.9582-9.193 5.0032-13.536 0.11302 0.0333 0.24699 0.0398 0.42663 0.0388 2.5376-0.014 11.443-5.504 15.999-9.8706 1.0637-1.0196 3.2242-2.8522 4.8092-4.0724 3.2137-2.474 2.8306-2.6834-2.5792-1.3768-5.8558 1.4143-11.122 4.2674-14.66 7.7181 2.1586-3.6211 4.6094-7.03 7.2914-10.239h1.3768c4.5096-0.015 9.561-1.3443 14.331-3.7621 2.3942-1.2136 5.5431-2.6681 6.9812-3.2191 3.5044-1.3428 2.4341-1.909-3.5488-1.9198-5.9138-0.0107-9.9661 0.7679-13.458 2.7731 2.5878-2.5196 5.3219-4.8698 8.2029-7.02 0.0228 0.0524 0.0715 0.10921 0.11636 0.15514 0.18897 0.19361 1.2597 0.53267 2.3852 0.75629 3.2955 0.65477 7.0898 0.5656 13.478-0.31027 3.292-0.45138 6.8867-0.83132 8.009-0.83386 1.1222-3e-3 2.0556-0.18324 2.0556-0.42663 1e-5 -0.24339-2.1518-1.1792-4.7705-2.075-6.0014-2.053-12.441-2.2701-16.794-0.58176 3.2871-2.4762 5.8619-4.4286 7.7762-5.934 0.21223 0.10234 0.57375 0.097 1.1247 0.097 4.0467 0 7.2338-1.6266 11.306-5.7982 4.2387-4.3426 6.7197-8.1125 4.8092-7.3108-0.55397 0.23244-2.7144 0.8622-4.8092 1.4156-8.549 2.2584-11.354 4.491-12.489 9.89-6e-3 0.0265-0.014 0.0324-0.0194 0.0582-3.2887 2.054-7.363 4.7633-9.9094 6.4964 0.10694-0.10608 0.20968-0.22497 0.31028-0.32967 3.1535-3.2822 4.685-6.236 6.0504-11.674l0.9696-3.859-1.1635 0.62055c-0.64188 0.34671-2.6149 1.6267-4.3826 2.8506-6.8904 4.7707-10.461 10.806-9.2694 15.669 0.19569 0.79879 0.47203 1.4544 0.60116 1.4544 0.1878-1e-5 0.45943-0.0828 0.79507-0.23271-9.316 7.5832-17.029 17.217-22.514 28.254 0.88219-2.4047 1.4115-5.2649 1.4156-8.0477 5e-3 -3.3651-0.39284-5.4822-1.8422-9.987l-1.8423-5.7013-1.532 4.6735c-4.1657 12.608-4.3186 16.59-0.79507 22.708l1.1247 1.9392 1.2023-1.4544c0.32486-0.38692 0.64005-0.82107 0.93083-1.2993-2.1633 4.7776-3.9209 9.7972-5.2165 15.01-0.0388-1.0452-0.16057-2.0414-0.38784-3.0252-0.78419-3.3944-2.9339-8.6586-4.053-9.9288-0.41437-0.47034-1.5968-2.2755-2.6179-4.0142-1.8049-3.0733-1.8486-3.1146-1.8616-1.3962-7e-3 0.97217-0.21324 4.5555-0.44602 7.9508-0.68357 9.9703 1.0674 15.981 5.4104 18.694 1.2189 0.7615 1.8016 1.0874 2.1913 0.85326-0.56777 4.0694-0.87265 8.2352-0.87265 12.469 0 0.48517 0.0117 0.97114 0.0194 1.4544-1.3406-3.7213-6.8265-12.065-9.0367-13.633-0.73147-0.51885-2.2168-1.6787-3.2967-2.5986-1.5064-1.2832-1.8699-1.4328-1.5708-0.62054 0.21448 0.58224 0.75212 3.3375 1.2023 6.1279 1.6008 9.9222 4.4103 15.589 9.3858 18.946 1.6382 1.1053 3.3161 2.0168 3.7233 2.0168 0.11974-1e-5 0.21981-0.0653 0.31027-0.19392 0.60741 4.733 1.5938 9.3509 2.9088 13.807-1.7329-2.8208-3.8742-5.3171-5.8952-6.5739-1.0496-0.65272-3.351-2.2068-5.1001-3.4518-1.7492-1.245-4.3301-2.9315-5.7401-3.7621l-2.5792-1.5126 3.2579 6.7097c1.7838 3.6896 4.0881 8.0358 5.1389 9.6573 2.3297 3.5948 6.2413 6.7255 10.142 8.1447 3.2916 1.1976 4.1604 1.4576 4.2081 0.34905 2.2005 5.162 4.8807 10.058 7.9702 14.622-1.2217-1.3116-2.4788-2.512-3.51-3.2773-3.4234-2.5407-9.5188-5.3818-13.032-6.0891-1.6818-0.33864-3.9718-0.9743-5.1001-1.4156-2.8876-1.1295-3.0066-1.0353-1.1635 1.0084 0.89864 0.99647 2.7095 3.2937 4.0336 5.1001 2.4589 3.3547 8.0611 8.3056 11.344 10.045 1.0061 0.53299 3.3428 1.3101 5.1777 1.7259 1.835 0.41579 3.8229 0.65526 4.4214 0.52358 0.59854-0.13167 1.5242-0.24791 2.0556-0.25209 0.80054-6e-3 0.88224-0.12493 0.34906-1.2217 12.888 15.792 31.143 26.633 51.816 29.418-2.0512 0.4057-4.1475 0.96882-5.7982 1.6096-2.8515 1.1068-18.771 9.0505-18.772 9.3664-7.5e-4 0.32493 10.555-0.23082 13.924-0.7369 4.7813-0.71838 11.041-2.8576 13.594-4.6347 1.0579-0.73648 2.7551-2.3396 3.7815-3.5682l1.1441-1.3768c0.89355 0.0302 1.795 0.0582 2.6955 0.0582 0.99914 0 1.9958-0.021 2.9864-0.0582l2.8312 2.6955c3.078 2.9499 4.0994 3.5533 8.0865 4.8092 6.6643 2.0993 7.2016 2.2056 14.35 2.6373 3.5913 0.21688 6.8398 0.43623 7.2139 0.48481 0.37409 0.0486 0.67873-0.0264 0.67873-0.17453 0-0.36188-4.8299-2.8256-6.5352-3.3354-0.74818-0.22368-2.228-1.0252-3.2967-1.7647-3.6255-2.5088-10.25-4.9227-15.572-6.031 29.878-4.0962 54.706-25.028 65.487-53.387-0.53531 1.5668-0.91143 2.8369-0.91144 3.1609 1e-5 1.1126 0.78919 1.0912 4.1693-0.17453 3.8807-1.4532 7.5262-4.1692 9.7349-7.2333 1.8874-2.6184 9.0098-16.816 8.4356-16.813-0.35977 2e-3 -7.2745 4.3907-11.519 7.3108-4.4798 3.0821-7.0014 6.1905-8.901 10.995 1.9903-5.8115 3.3995-11.915 4.1499-18.229 0.17996 1.61 1.1685 1.1305 4.2857-0.77569 4.9484-3.0259 8.0632-9.0143 9.5409-18.345 0.42031-2.654 1.0041-5.4877 1.2993-6.283s0.34139-1.435 0.097-1.435c-0.78945 1e-5 -8.9844 8.56-10.898 11.383-1.9705 2.9066-3.1699 5.7472-3.8009 9.1337 0.069-1.4412 0.097-2.8848 0.097-4.3438 0-27.952-12.809-52.792-32.618-68.454 0.99812 0.51205 1.9924 0.85514 2.2689 0.77569 0.79067-0.22722 0.9917-4.2039 0.32966-6.477-0.8704-2.9884-5.597-8.2967-9.987-11.209-2.1698-1.4392-4.0318-2.5396-4.1305-2.4434-0.3083 0.30039 1.4994 7.0005 2.5404 9.4052 0.89577 2.0693 3.6404 5.4723 6.0697 7.7569-1.4305-1.0317-2.9079-2.0298-4.402-2.967-1.4724-0.70961-4.3116-2.2995-7.1169-3.8784 0.0608-0.15174 0.097-0.34239 0.097-0.58176 1e-5 -3.9324-4.0283-8.081-9.3276-9.6185-1.9032-0.55218-4.654-1.4001-6.1085-1.8616-1.2727-0.40389-2.4058-0.68289-2.7343-0.67873zm40.917 11.344 0.19392 7.2333c0.17315 6.4845 0.36078 7.5928 1.6871 10.511 0.87372 1.922 2.5458 4.2782 4.0724 5.7207 1.4245 1.346 2.7541 2.4401 2.967 2.4434 0.83825 0.0129 1.6198-4.8763 1.3187-8.2223-0.45246-5.0282-2.0883-8.1174-8.1447-15.242l-2.0944-2.4434zm-115.34 0.23271-3.4906 4.3438c-1.9209 2.3861-4.1181 5.6337-4.8868 7.2139-1.5551 3.1965-2.045 7.8645-1.2217 11.752 0.27599 1.3031 0.74597 2.3658 1.0472 2.3658 0.30121 0 1.8485-1.2991 3.4324-2.9088 4.4252-4.497 6.3416-11.14 5.5074-19.121l-0.38784-3.6457zm133.51 16.658c-0.29382-0.027-1.011 1.3659-1.9004 3.7233-1.5018 3.9802-1.6754 5.1347-1.7065 10.608-0.0324 5.7028 0.061 6.3405 1.5126 9.1919 0.85849 1.6863 1.8266 3.4055 2.1525 3.8202 0.48506 0.61723 0.77825 0.53216 1.5514-0.44602 1.4083-1.7818 3.1715-7.0303 3.1609-9.3858-0.0119-2.6377-2.2896-11.11-4.6735-17.395-0.024-0.0631-0.055-0.11249-0.097-0.11635zm12.779 20.75-2.3658 3.7621c-1.3073 2.0662-3.1818 5.3761-4.1499 7.369-1.6491 3.3948-1.749 3.9988-1.7453 9.4828 2e-3 3.7177 0.25647 6.3009 0.69811 7.0975 0.38243 0.68986 0.84919 1.2605 1.0278 1.2605 1.0864-1e-5 3.9211-2.4865 4.8868-4.2857 2.3553-4.3883 2.934-9.7108 2.1138-19.256l-0.46541-5.4298zm-154.4 20.944c-0.25236 0.10453-2.3384 2.0581-4.8674 4.5378-5.2946 5.1914-6.9714 7.9443-8.4744 14.021-0.59977 2.4249-0.77074 4.5279-0.52358 6.5545 0.20003 1.6402 0.55662 2.9864 0.77568 2.9864 0.49001-1e-5 5.4786-6.804 6.9812-9.5215 0.9781-1.7689 2.6258-6.5927 5.2747-15.397 0.47855-1.5906 0.87265-3.0045 0.87265-3.1609 0-0.01-0.022-0.0264-0.0388-0.0194zm15.979 0.7369c-3.3024 0.0418-5.9631 0.92777-7.912 2.6567-1.944 1.7248-2.9698 4.081-3.0058 6.923-0.0644 1.7785 0.39823 3.5498 1.3381 5.3328 0.96132 1.8239 2.7349 3.7878 5.3522 5.9534l2.2495 1.8616c6e-3 1.1e-4 0.0129 1.1e-4 0.0194 0 2.09 1.6877 3.533 3.1606 4.3438 4.3826 0.80266 1.2098 1.1907 2.5592 1.1635 4.1111-1.1e-4 6e-3 -1.1e-4 0.0129 0 0.0194 2e-3 1.5344-0.50779 2.8661-1.6096 4.1111-1.0548 1.192-2.6622 1.8464-4.945 1.9198-1.6295 0.0177-3.0496-0.34665-4.3438-1.086-1.2383-0.70731-2.046-1.8449-2.4434-3.5488-0.0636-0.31446-0.0822-0.58483-0.097-0.89204-0.0152-0.31509-0.0223-0.60334-0.0194-0.81447 6e-3 -0.27577-0.039-0.48168-0.15513-0.69811-0.0762-0.14198-0.22995-0.30132-0.38785-0.36845-0.1579-0.0671-0.2877-0.0793-0.40723-0.0776-0.33592-3e-3 -0.69138 0.23592-0.83386 0.54298-0.12221 0.26341-0.14967 0.49785-0.17453 0.79508-1.1e-4 6e-3 -1.1e-4 0.0129 0 0.0194-0.0332 0.42569-0.0725 1.0946-0.13575 2.0168-0.0643 0.93731-0.10902 2.042-0.11635 3.3161-0.0131 0.67704 5e-3 1.1288 0.15514 1.532 0.16057 0.43205 0.53817 0.72236 0.9696 0.91143 1.0728 0.51467 2.1572 0.87076 3.3354 1.086 1.1662 0.21302 2.3589 0.31669 3.5682 0.31028 1.4069 6e-3 2.7906-0.16085 4.1305-0.5042 1.3542-0.34703 2.601-0.92499 3.7427-1.7065 0.0132-6e-3 0.0261-0.0125 0.0388-0.0194 1.748-1.3367 2.9687-2.8396 3.6069-4.5378 0.60249-1.6031 0.90812-2.9903 0.87265-4.1887-1.7e-4 -6e-3 1.9e-4 -0.0135 0-0.0194 2.1e-4 -7e-3 -1.9e-4 -0.0129 0-0.0194 0.0603-2.0408-0.45074-4.0212-1.5126-5.8952-1.0864-1.9172-3.0997-3.9882-6.0116-6.283l-1.3962-1.086c-2.326-1.7908-3.9202-3.3022-4.7317-4.4214-0.81262-1.1207-1.166-2.2435-1.1247-3.4712 0.0378-1.7116 0.55887-2.9509 1.5708-3.8396 1.034-0.90819 2.3075-1.3642 3.956-1.3768 2.1914 0.074 3.6607 0.47364 4.3826 1.0084 0.43528 0.32247 0.76999 0.59261 0.989 0.81447 0.21901 0.22187 0.31072 0.40874 0.31028 0.40724 0.01 0.0334 0.023 0.0658 0.0388 0.097 0.12915 0.25575 0.25348 0.60979 0.36845 1.086 0.11661 0.48322 0.16608 0.87694 0.19392 1.1829 0.0253 0.25818 0.0887 0.46684 0.17453 0.65933 0.13284 0.29842 0.53362 0.53872 0.83386 0.54298 0.2063 4e-3 0.43645-0.10844 0.58177-0.2521 0.14532-0.14365 0.20591-0.29094 0.2521-0.44602 0.0937-0.31473 0.11742-0.64526 0.11635-1.0666 8e-3 -1.6831 0.0405-2.9475 0.097-3.7815 0.0582-0.86029 0.0894-1.3485 0.097-1.4544 1.1e-4 -6e-3 1e-4 -0.0129 0-0.0194 8e-3 -0.23102-0.0693-0.55317-0.32967-0.7563-0.26707-0.20793-0.51193-0.21456-0.75629-0.21331-0.1301 1e-3 -0.35547-5e-3 -0.60116-0.0388-0.23704-0.0326-0.57538-0.0983-1.0278-0.19393-0.64407-0.15826-1.3366-0.27635-2.1137-0.36845-0.78401-0.0928-1.6728-0.15297-2.6567-0.15513zm56.16 0c-4.6645 0.0929-8.5219 1.2074-11.538 3.3742-2.9723 2.1352-5.198 4.7556-6.6127 7.8344-1.3993 3.0452-2.1071 6.0177-2.0944 8.901-0.0155 3.1577 0.68523 6.2782 2.0556 9.3276 1.3842 3.0803 3.5814 5.6422 6.5352 7.6793 2.9932 2.0643 6.8254 3.1226 11.5 3.1997 6e-3 1e-4 0.0129 1e-4 0.0194 0 1.4126-0.0118 2.8731-0.17887 4.3632-0.5042 1.348-0.29431 2.4355-0.69192 3.3936-1.1441l8.1641 4.5184c4.0403 2.257 7.7573 3.9384 11.15 5.0614 3.3985 1.1247 6.6318 1.6892 9.6961 1.6871 6e-3 1e-4 0.0129 1e-4 0.0194 0 3.7479-0.063 6.9927-0.46155 9.7542-1.2411 2.7158-0.76669 4.807-1.512 6.3024-2.2495 1e-4 -6e-3 1e-4 -0.0129 0-0.0194 0.18199-0.0911 0.34476-0.17017 0.52359-0.40723 6e-3 1e-4 0.0129 1e-4 0.0194 0 0.15598-0.2074 0.19764-0.45594 0.19392-0.63994-2.2e-4 -0.21846-0.13235-0.44304-0.23271-0.56238-0.13688-0.16229-0.41072-0.30311-0.63994-0.31027-0.0129-4.2e-4 -0.0258-4.2e-4 -0.0388 0-0.14619 4e-3 -0.30461 0.0374-0.4848 0.097-0.13511 0.0446-0.24548 0.0866-0.38785 0.13575-6e-3 -1.1e-4 -0.0129-1.1e-4 -0.0194 0-1.7237 0.67802-3.4459 1.1754-5.1583 1.4738-1.7278 0.30109-3.2222 0.43262-4.4602 0.42662-0.0194-9.4e-4 -0.0388-9.4e-4 -0.0582 0-1.141 0.0951-3.5854-0.13874-7.1751-0.79507-3.5196-0.64352-8.0269-2.3252-13.497-5.0226l-9.444-4.8674c1.675-1.2032 3.3531-2.9431 5.0807-5.4492 2.0348-2.9518 3.1314-6.6812 3.2967-11.17 4.3e-4 -0.0129 4.2e-4 -0.0259 0-0.0388-0.11779-5.9638-2.0579-10.716-5.7982-14.117-3.7272-3.3894-8.5679-5.1204-14.408-5.1777-6e-3 -1.1e-4 -0.0129-1.1e-4 -0.0194 0zm-44.854 0.69811c-0.33155-2e-3 -0.60239 0.0388-0.85325 0.15514-0.29434 0.13666-0.54527 0.52902-0.54298 0.85325-1e-4 6e-3 -1.1e-4 0.0129 0 0.0194 9e-3 0.22089 0.1986 0.56645 0.40723 0.69811 0.16473 0.10409 0.37208 0.17461 0.58177 0.17453 0.21959 4e-5 0.50759 0.0146 0.83386 0.0388 0.31154 0.0232 0.55849 0.056 0.7369 0.097 6e-3 1e-4 0.0129 1e-4 0.0194 0 0.71624 0.14735 1.0997 0.39005 1.2799 0.65933 0.20213 0.30216 0.34056 0.85297 0.36845 1.6289-1e-4 6e-3 -1e-4 0.0129 0 0.0194 0.0463 0.64024 0.0866 1.6498 0.097 3.0252 0.0103 1.3764 2e-3 3.9442 0 7.6987v8.7846c5e-3 2.4147 6e-3 4.5589-0.0194 6.4188-0.0258 1.8565-0.0783 3.3106-0.19392 4.3438-0.0808 0.6964-0.21717 1.2622-0.38784 1.6871-0.13999 0.3485-0.30996 0.47166-0.62055 0.54298-0.20885 0.0471-0.4391 0.0976-0.69812 0.13575-0.24172 0.0356-0.45348 0.0369-0.65933 0.0388-6e-3 -1e-4 -0.0129-1e-4 -0.0194 0-0.23461 5e-3 -0.48017 0.0573-0.69812 0.27149-0.1048 0.10299-0.29844 0.35736-0.29088 0.63994-2e-3 0.32423 0.24853 0.69725 0.54298 0.83386 0.25084 0.11641 0.52154 0.15765 0.85325 0.15514 0.85453-6e-3 1.8359-0.0337 2.9282-0.0776 1.0667-0.0428 1.6669-0.071 1.8423-0.0776 3e-3 1.1e-4 0.0351-1.2e-4 0.0388 0 0.19923 7e-3 0.88747 0.0347 2.0944 0.0776 1.2349 0.0439 2.5871 0.0713 4.0336 0.0776 0.32047-5e-3 0.60042-0.0334 0.87264-0.17453 0.26048-0.135 0.4933-0.49221 0.5042-0.81447 1.9e-4 -6e-3 -5e-5 -0.0138 0-0.0194 4e-5 -4e-3 -5e-3 -0.0168 0-0.0194-0.0134-0.2608-0.17324-0.50456-0.27149-0.60116-0.21783-0.21399-0.4635-0.26652-0.69812-0.27149-6e-3 -1e-4 -0.0129-1e-4 -0.0194 0-0.22419-2e-3 -0.54258-0.0198-0.96961-0.0582-0.43151-0.0388-0.8229-0.0659-1.1829-0.11636-0.60475-0.0926-0.89004-0.30264-1.0472-0.60115-0.20859-0.39624-0.33908-0.93326-0.38785-1.6096-6e-3 -7e-3 -0.0128-0.0131-0.0194-0.0194-0.11559-1.0333-0.16809-2.4874-0.19392-4.3438-0.026-1.864-0.044-4.0072-0.0388-6.4188v-20.497c-2e-3 -0.18767 0.0246-0.31575 0.0582-0.40723 0.16478-0.0687 0.42415-0.15057 0.7563-0.19392 0.35682-0.0465 0.73715-0.0581 1.1441-0.0582 0.0194 9.5e-4 0.0388 9.5e-4 0.0582 0 0.50081-0.0519 1.4337 0.0139 2.6955 0.23271 1.12 0.19426 2.3255 0.86556 3.6263 2.075 1.2221 1.3398 1.9581 2.6528 2.2495 3.956 0.31206 1.3958 0.43156 2.4966 0.38785 3.2773-1e-4 6e-3 -1.1e-4 0.0129 0 0.0194-0.0539 2.2138-0.80832 3.9836-2.3077 5.391-1.4999 1.4079-3.3789 2.103-5.7401 2.1525-0.53909-7e-3 -0.87326 0.0224-1.2023 0.11636-0.20076 0.0574-0.41205 0.17484-0.54298 0.36845s-0.18374 0.41138-0.17453 0.60115c-1e-4 6e-3 -1.1e-4 0.0129 0 0.0194 0.0166 0.28203 0.2904 0.64293 0.52358 0.75629 0.13234 0.0643 0.3139 0.1172 0.52359 0.13574 0.0146 1e-3 0.0238-7.8e-4 0.0388 0 0.0243 1e-3 0.033 0.0196 0.0582 0.0194 0.16344 0.0219 0.31821 0.0342 0.5042 0.0388 0.22776 6e-3 0.41394 9.9e-4 0.54298 0 3.7255-0.0536 6.8277-1.2099 9.1919-3.4518 2.3689-2.2464 3.6135-5.2811 3.6845-8.998 4.3e-4 -0.0129 4.2e-4 -0.0259 0-0.0388-0.0373-1.4111-0.34592-2.6936-0.91143-3.8203-0.52759-1.0509-1.0945-1.8608-1.7259-2.4628-0.0203-0.0194-0.0377-0.0586-0.0582-0.0776l-0.0194 0.0194c-0.49997-0.60272-1.3477-1.1244-2.7149-1.8035-1.5349-0.76222-3.8154-1.149-6.923-1.2217-6e-3 -1e-4 -0.0129-1e-4 -0.0194 0-1.2043 6e-3 -2.4237 0.0338-3.6263 0.0776-1.1958 0.0436-2.0704 0.0715-2.6567 0.0776-0.25272-6e-3 -0.96521-0.0339-2.1137-0.0776-1.1542-0.0438-2.3302-0.0713-3.5294-0.0776zm64.712 0c-0.33156-2e-3 -0.60241 0.0388-0.85325 0.15514-0.29432 0.13666-0.54529 0.52898-0.54298 0.85325-1e-4 6e-3 -1.1e-4 0.0129 0 0.0194 9e-3 0.22091 0.19863 0.56646 0.40723 0.69811 0.16476 0.10412 0.37208 0.17461 0.58177 0.17453 0.21958 4e-5 0.50758 0.0146 0.83386 0.0388 0.31154 0.0232 0.55849 0.056 0.7369 0.097 6e-3 1e-4 0.0129 1e-4 0.0194 0 0.71622 0.14735 1.0997 0.39006 1.2799 0.65933 0.20213 0.30216 0.34056 0.85297 0.36845 1.6289-1e-4 6e-3 -1e-4 0.0129 0 0.0194 0.0463 0.64023 0.0866 1.6498 0.097 3.0252 0.0103 1.3764 2e-3 3.9442 0 7.6987v8.7846c5e-3 2.4147 6e-3 4.5589-0.0194 6.4188-0.0258 1.8565-0.0783 3.3106-0.19392 4.3438-0.0808 0.69641-0.21717 1.2622-0.38784 1.6871-0.14001 0.34852-0.30996 0.47166-0.62055 0.54298-0.20884 0.0471-0.43911 0.0976-0.69812 0.13575-0.2417 0.0356-0.45349 0.0369-0.65933 0.0388-6e-3 -1e-4 -0.0129-1e-4 -0.0194 0-0.23462 5e-3 -0.48021 0.0573-0.69812 0.27149-0.10474 0.10294-0.29844 0.3573-0.29088 0.63994-2e-3 0.32428 0.24854 0.69726 0.54298 0.83386 0.25082 0.11639 0.52154 0.15765 0.85325 0.15514 0.85664-6e-3 1.8269-0.0337 2.9088-0.0776 1.0446-0.0423 1.608-0.0698 1.7647-0.0776 5e-3 1.7e-4 0.0524-1.9e-4 0.0582 0 0.20683 7e-3 0.87924 0.0351 2.075 0.0776 1.2349 0.0439 2.5871 0.0713 4.0336 0.0776 0.32045-5e-3 0.60042-0.0334 0.87264-0.17453 0.26047-0.135 0.49329-0.49221 0.5042-0.81447 1.8e-4 -6e-3 -5e-5 -0.0138 0-0.0194 3e-5 -4e-3 -5e-3 -0.0168 0-0.0194-0.0134-0.2608-0.17324-0.50456-0.27149-0.60116-0.21786-0.21404-0.4635-0.26652-0.69812-0.27149-6e-3 -1e-4 -0.0129-1e-4 -0.0194 0-0.2242-2e-3 -0.54257-0.0198-0.96961-0.0582-0.43308-0.0389-0.84512-0.0663-1.2023-0.11636-0.60318-0.0923-0.86494-0.2918-1.0278-0.60115-0.2086-0.39624-0.33907-0.93326-0.38785-1.6096-6e-3 -7e-3 -0.0128-0.0131-0.0194-0.0194-0.11559-1.0333-0.1681-2.4874-0.19392-4.3438-0.026-1.864-0.044-4.0072-0.0388-6.4188v-0.989l5.8952 0.097c0.0701 2e-5 0.0646-7e-3 0.0776 0 0.0619 0.0323 0.0955 0.055 0.13575 0.097 0.52408 0.69453 1.262 1.7327 2.2495 3.1028 1.0085 1.3992 2.0576 2.8159 3.1415 4.2469 1.397 1.8795 2.6274 3.4215 3.6651 4.6541 1.0625 1.2621 2.1319 2.211 3.2579 2.8312 0.67515 0.37864 1.422 0.63908 2.2689 0.79508 0.85087 0.15673 1.9694 0.23693 3.3548 0.2327h3.5488c0.47866 2e-3 0.82472-0.0357 1.1247-0.13574 0.16206-0.054 0.33026-0.14105 0.46541-0.31028 0.13515-0.16922 0.20162-0.39839 0.19392-0.58176-9e-3 -0.21367-0.19084-0.53428-0.36845-0.65933-0.20828-0.14652-0.43322-0.2078-0.65933-0.21332-0.0129-4.2e-4 -0.0259-4.2e-4 -0.0388 0-0.12258 3e-3 -0.34974-4e-3 -0.67872-0.0194-0.29902-0.014-0.67789-0.0463-1.1441-0.11635-0.0127-7e-3 -0.0256-0.0134-0.0388-0.0194-0.51897-0.0487-1.3075-0.27643-2.3077-0.7369-0.92633-0.42643-2.0877-1.3049-3.413-2.6567-1.4282-1.5424-2.9825-3.3916-4.6929-5.5462-1.6202-2.0409-3.4247-4.3137-5.3328-6.7679 2.0338-1.9552 3.5582-3.8627 4.4602-5.7207 0.95289-1.9629 1.4269-3.9168 1.3962-5.8564 1e-4 -6e-3 1.1e-4 -0.0129 0-0.0194-0.0685-1.8125-0.4961-3.3803-1.3381-4.6541-0.79513-1.2028-1.5681-2.0655-2.3658-2.5985-1.4082-0.96713-2.9579-1.6012-4.6153-1.9004-1.6149-0.29145-3.2382-0.43489-4.8674-0.40724-0.89648 6e-3 -1.9895 0.0339-3.3161 0.0776-1.3137 0.0433-2.1612 0.0713-2.5404 0.0776-2e-3 -6e-5 -0.0175 6e-5 -0.0194 0-0.19735-6e-3 -0.86996-0.0343-2.0362-0.0776-1.182-0.0438-2.3791-0.0713-3.5876-0.0776zm-20.963 2.2107c0.25123-0.0102 0.51795 7e-5 0.77569 0 3.9292 0.018 7.2513 1.4934 10.103 4.5184 2.8185 2.9896 4.3231 7.3934 4.4602 13.303-0.0857 4.715-0.94745 8.1941-2.4822 10.53-1.5808 2.4058-3.3622 4.0004-5.3522 4.8092-2.0734 0.84274-3.8458 1.1975-5.3134 1.1441-6e-3 -1.1e-4 -0.0129-1.1e-4 -0.0194 0-4.4489-0.0674-8.0245-1.703-10.898-4.9838-2.8627-3.268-4.358-7.7527-4.4602-13.536 0.0848-5.3682 1.4252-9.2684 3.9754-11.868 2.4154-2.4621 5.4428-3.765 9.2113-3.9172zm31.163 0.60115c0.32902-0.012 0.68839 2e-3 1.0666 0 2.5697 0.0248 4.4745 0.81534 5.8758 2.424 1.4002 1.6075 2.1273 3.8926 2.1525 6.9424-0.0172 1.8456-0.29396 3.3636-0.81447 4.5765-0.52884 1.2323-1.1851 2.0909-1.9586 2.6179-0.52632 0.35087-1.059 0.56785-1.6289 0.67872-0.61334 0.11936-1.2018 0.16478-1.7647 0.15514-6e-3 -1.1e-4 -0.0129-1.1e-4 -0.0194 0-1.1058-5e-3 -2.1201-0.0696-3.064-0.21331-0.9449-0.14389-1.604-0.34838-1.881-0.5042-0.11009-0.0683-0.0406-4e-3 -0.0388-0.0582 1.1e-4 -6e-3 1e-4 -0.0129 0-0.0194v-16.309c1e-3 -0.042-0.0139-0.0373-0.0194-0.0388 5e-3 4e-3 0.0203 7e-3 0.0388 0 0.20227-0.0568 0.58363-0.11922 1.1441-0.17453 0.28372-0.028 0.58241-0.0656 0.91143-0.0776zm-103.94 16.095c-0.9138 0.0164-6.9343 10.165-8.009 13.73-1.4334 4.7546-1.4062 9.8168 0.0582 13.827 1.123 3.0751 1.154 3.1108 2.2301 2.1138 1.3301-1.2324 2.9654-4.4497 4.0336-7.912 0.62597-2.0291 1.7176-15.037 1.8035-21.525 2e-3 -0.1542-0.0389-0.2341-0.11635-0.2327zm159.02 38.067c-0.41657 0.02-1.1702 0.20538-2.2301 0.56237-1.3118 0.44185-3.721 1.0707-5.3522 1.4156-4.4022 0.9307-11.74 4.9184-15.32 8.2998-2.5927 2.4489-5.9146 6.9983-5.9146 8.1059 0 0.155 0.67021 0.39325 1.4932 0.52358 2.8095 0.44493 9.1152-1.0657 11.635-2.7925 6.6856-4.581 8.433-6.2519 11.616-11.092 1.03-1.5663 2.5104-3.273 3.2967-3.8008 1.2427-0.83423 1.47-1.255 0.77568-1.2217zm-169.49 24.531c-0.37729 0.0109-0.62104 0.0403-0.69812 0.097-0.091 0.0669 2.5555 2.05 5.8758 4.402 5.9968 4.248 7.621 5.0674 13.885 7.0587 3.745 1.1906 9.3785 1.0404 12.624-0.34906l1.9586-0.83386-2.1331-1.9198c-1.1678-1.0506-3.7172-2.6943-5.6625-3.6651-1.9453-0.97076-3.9113-1.9673-4.3826-2.2107-1.5576-0.8046-17.82-2.6843-21.467-2.5792zm155.52 0.21332c-1.5174-0.0195-4.7374 0.18988-10.666 0.69811-7.3673 0.6316-12.407 2.2003-16.871 5.2359-4.0343 2.7434-4.9964 3.88-3.9948 4.7317 0.42453 0.36097 1.8377 0.88153 3.1415 1.1441 4.7987 0.96652 8.9482 0.37012 15.048-2.1331 2.6157-1.0734 13.822-8.3533 14.447-9.3858 0.10975-0.18138-0.1949-0.27915-1.1054-0.29088zm-39.948 16.852c-3.639 1e-5 -10.73 1.515-12.857 2.7343-1.0178 0.58356 2.5459 3.0649 6.4382 4.499 2.1158 0.77955 4.4033 1.091 8.0671 1.1054 4.4632 0.0175 6.1085-0.27985 12.935-2.3464 6.9558-2.1059 7.6201-2.4055 6.031-2.7537-8.4299-1.847-17.259-3.2385-20.614-3.2385zm-75.222 0.11636c-2.8853 0.029-5.926 0.34886-8.9592 0.9696-2.9006 0.59363-7.0702 1.384-9.2694 1.7647l-3.9948 0.69811 2.3658 0.67873c1.3014 0.37249 4.8223 1.4357 7.815 2.3658 9.426 2.9296 19.6 2.0823 24.182-2.0168l1.7453-1.5708-1.3962-0.65933c-3.2755-1.529-7.6796-2.2783-12.489-2.2301z" fill="#f3dd6d"/>
 </g>
</svg>
